<svg xmlns="http://www.w3.org/2000/svg" viewBox="0 0 1200 720" role="img" aria-labelledby="title desc">
  <title id="title">Emergency physician building trust with a patient</title>
  <desc id="desc">A warm cartoon-style illustration of an emergency physician sitting with a patient, introducing himself, and explaining the plan of care.</desc>
  <defs>
    <linearGradient id="bg" x1="0" y1="0" x2="1" y2="1">
      <stop offset="0" stop-color="#F8F3EA"/>
      <stop offset="1" stop-color="#E9F2F3"/>
    </linearGradient>
    <filter id="shadow" x="-20%" y="-20%" width="140%" height="140%">
      <feDropShadow dx="0" dy="16" stdDeviation="18" flood-color="#1E3A5F" flood-opacity="0.18"/>
    </filter>
  </defs>
  <rect width="1200" height="720" fill="url(#bg)"/>
  <circle cx="1010" cy="120" r="90" fill="#C9973A" opacity="0.15"/>
  <circle cx="170" cy="612" r="126" fill="#3D7A8A" opacity="0.13"/>

  <g filter="url(#shadow)">
    <rect x="88" y="98" width="330" height="430" rx="38" fill="#FFFFFF"/>
    <rect x="130" y="148" width="246" height="54" rx="14" fill="#1E3A5F"/>
    <text x="253" y="184" text-anchor="middle" font-family="Arial, sans-serif" font-size="24" font-weight="800" fill="#FFFFFF">CARE PLAN</text>
    <g font-family="Arial, sans-serif" font-size="23" font-weight="700" fill="#1E3A5F">
      <circle cx="150" cy="260" r="13" fill="#3D7A8A"/>
      <path d="M142 260l6 7 14-18" fill="none" stroke="#fff" stroke-width="5" stroke-linecap="round" stroke-linejoin="round"/>
      <text x="182" y="269">Use your name</text>
      <circle cx="150" cy="326" r="13" fill="#3D7A8A"/>
      <path d="M142 326l6 7 14-18" fill="none" stroke="#fff" stroke-width="5" stroke-linecap="round" stroke-linejoin="round"/>
      <text x="182" y="335">Sit and listen</text>
      <circle cx="150" cy="392" r="13" fill="#3D7A8A"/>
      <path d="M142 392l6 7 14-18" fill="none" stroke="#fff" stroke-width="5" stroke-linecap="round" stroke-linejoin="round"/>
      <text x="182" y="401">Explain the plan</text>
      <circle cx="150" cy="458" r="13" fill="#3D7A8A"/>
      <path d="M142 458l6 7 14-18" fill="none" stroke="#fff" stroke-width="5" stroke-linecap="round" stroke-linejoin="round"/>
      <text x="182" y="467">Safe discharge</text>
    </g>
  </g>

  <g filter="url(#shadow)">
    <ellipse cx="775" cy="625" rx="270" ry="36" fill="#1E3A5F" opacity="0.18"/>

    <path d="M660 390c-38 21-66 64-69 116l-5 92h238l-6-92c-4-68-57-122-122-122-13 0-25 2-36 6z" fill="#FFFFFF"/>
    <path d="M612 430h205l18 168H585z" fill="#3D7A8A" opacity="0.18"/>
    <circle cx="700" cy="304" r="88" fill="#F2C29B"/>
    <path d="M617 302c9-76 78-116 145-82 34 18 54 46 60 86-36-22-76-30-116-22-40 8-64 11-89 18z" fill="#6B3F2A"/>
    <circle cx="672" cy="320" r="8" fill="#1F2937"/>
    <circle cx="740" cy="320" r="8" fill="#1F2937"/>
    <path d="M674 363c22 20 55 20 78 0" fill="none" stroke="#1F2937" stroke-width="8" stroke-linecap="round"/>
    <path d="M590 510c-56 0-100-18-134-54" fill="none" stroke="#F2C29B" stroke-width="32" stroke-linecap="round"/>
    <path d="M816 508c54 4 94-11 124-46" fill="none" stroke="#F2C29B" stroke-width="32" stroke-linecap="round"/>

    <path d="M906 420c-24 14-42 36-53 67" fill="none" stroke="#1E3A5F" stroke-width="18" stroke-linecap="round"/>
    <path d="M523 420c22 14 39 36 50 67" fill="none" stroke="#1E3A5F" stroke-width="18" stroke-linecap="round"/>

    <path d="M910 397c-30 24-76 23-105-2" fill="none" stroke="#C9973A" stroke-width="14" stroke-linecap="round"/>
    <text x="858" y="372" text-anchor="middle" font-family="Arial, sans-serif" font-size="26" font-weight="900" fill="#1E3A5F">Hi, I'm Dr. C</text>
  </g>

  <g filter="url(#shadow)">
    <path d="M900 428c-22 31-32 76-25 131l8 41h170l4-48c7-78-35-139-95-139-24 0-46 5-62 15z" fill="#C9973A"/>
    <circle cx="966" cy="335" r="76" fill="#F2C29B"/>
    <path d="M895 330c13-64 64-91 119-68 29 13 48 39 52 78-33-18-66-22-98-12-30 9-51 9-73 2z" fill="#4B5563"/>
    <circle cx="943" cy="351" r="7" fill="#1F2937"/>
    <circle cx="1000" cy="351" r="7" fill="#1F2937"/>
    <path d="M948 389c17 14 42 14 60 0" fill="none" stroke="#1F2937" stroke-width="7" stroke-linecap="round"/>
  </g>

  <g>
    <rect x="390" y="60" width="420" height="82" rx="41" fill="#1E3A5F"/>
    <text x="600" y="113" text-anchor="middle" font-family="Arial, sans-serif" font-size="34" font-weight="900" fill="#FFFFFF">Trust Starts Small</text>
  </g>

  <path d="M532 206c-32-42-103-20-103 37 0 72 103 112 103 112s103-40 103-112c0-57-71-79-103-37z" fill="#FFFFFF" filter="url(#shadow)"/>
  <path d="M532 242c-17-22-54-10-54 20 0 38 54 59 54 59s54-21 54-59c0-30-37-42-54-20z" fill="#EF4444"/>
</svg>
