<svg xmlns="http://www.w3.org/2000/svg" viewBox="0 0 1200 720" role="img" aria-labelledby="title desc">
  <title id="title">Emergency department team asking the same question</title>
  <desc id="desc">A warm cartoon-style illustration of registration, a nurse, and an emergency physician all asking a patient what brings them in today.</desc>
  <defs>
    <linearGradient id="bg" x1="0" y1="0" x2="1" y2="1">
      <stop offset="0" stop-color="#F8F3EA"/>
      <stop offset="1" stop-color="#E9F2F3"/>
    </linearGradient>
    <filter id="shadow" x="-20%" y="-20%" width="140%" height="140%">
      <feDropShadow dx="0" dy="16" stdDeviation="18" flood-color="#1E3A5F" flood-opacity="0.18"/>
    </filter>
  </defs>
  <rect width="1200" height="720" fill="url(#bg)"/>
  <circle cx="1050" cy="120" r="88" fill="#C9973A" opacity="0.15"/>
  <circle cx="150" cy="620" r="125" fill="#3D7A8A" opacity="0.12"/>

  <g filter="url(#shadow)">
    <rect x="245" y="68" width="710" height="112" rx="34" fill="#FFFFFF"/>
    <path d="M440 178l-24 48 68-48z" fill="#FFFFFF"/>
    <text x="600" y="136" text-anchor="middle" font-family="Arial, sans-serif" font-size="46" font-weight="900" fill="#1E3A5F">What brings you in today?</text>
  </g>

  <g filter="url(#shadow)">
    <ellipse cx="600" cy="632" rx="390" ry="34" fill="#1E3A5F" opacity="0.16"/>

    <g transform="translate(116 270)">
      <path d="M30 170c0-80 52-142 120-142s120 62 120 142v144H30z" fill="#3D7A8A"/>
      <circle cx="150" cy="90" r="70" fill="#F2C29B"/>
      <path d="M82 82c12-58 72-88 122-55 25 17 37 41 38 75-33-24-65-31-99-24-26 5-42 6-61 4z" fill="#A8552B"/>
      <circle cx="128" cy="103" r="7" fill="#1F2937"/>
      <circle cx="176" cy="103" r="7" fill="#1F2937"/>
      <path d="M132 139c15 12 37 12 52 0" fill="none" stroke="#1F2937" stroke-width="7" stroke-linecap="round"/>
      <rect x="76" y="210" width="150" height="118" rx="16" fill="#FFFFFF"/>
      <rect x="100" y="236" width="102" height="14" rx="7" fill="#C9973A"/>
      <rect x="100" y="272" width="78" height="12" rx="6" fill="#D9E4E7"/>
      <text x="150" y="365" text-anchor="middle" font-family="Arial, sans-serif" font-size="26" font-weight="800" fill="#1E3A5F">Registration</text>
    </g>

    <g transform="translate(390 218)">
      <path d="M28 228c8-88 60-150 130-150s122 62 130 150v136H28z" fill="#FFFFFF"/>
      <path d="M72 250h172v114H72z" fill="#3D7A8A" opacity="0.18"/>
      <circle cx="158" cy="108" r="78" fill="#F2C29B"/>
      <path d="M83 101c12-72 82-105 142-66 28 19 43 48 44 86-40-28-80-34-119-22-28 8-47 8-67 2z" fill="#6B3F2A"/>
      <circle cx="130" cy="124" r="8" fill="#1F2937"/>
      <circle cx="190" cy="124" r="8" fill="#1F2937"/>
      <path d="M132 164c19 20 51 20 70 0" fill="none" stroke="#1F2937" stroke-width="8" stroke-linecap="round"/>
      <rect x="54" y="210" width="208" height="44" rx="22" fill="#1E3A5F"/>
      <text x="158" y="240" text-anchor="middle" font-family="Arial, sans-serif" font-size="22" font-weight="900" fill="#FFFFFF">ED Physician</text>
    </g>

    <g transform="translate(702 274)">
      <path d="M28 166c0-80 52-142 120-142s120 62 120 142v148H28z" fill="#C9973A"/>
      <circle cx="148" cy="88" r="70" fill="#F2C29B"/>
      <path d="M79 84c10-60 62-88 116-64 25 12 44 37 48 77-31-18-64-24-97-15-27 7-45 7-67 2z" fill="#8B5E3C"/>
      <circle cx="126" cy="102" r="7" fill="#1F2937"/>
      <circle cx="174" cy="102" r="7" fill="#1F2937"/>
      <path d="M132 140c16 13 38 13 54 0" fill="none" stroke="#1F2937" stroke-width="7" stroke-linecap="round"/>
      <rect x="82" y="204" width="140" height="116" rx="16" fill="#FFFFFF"/>
      <rect x="108" y="232" width="88" height="14" rx="7" fill="#3D7A8A"/>
      <rect x="108" y="268" width="66" height="12" rx="6" fill="#D9E4E7"/>
      <text x="148" y="365" text-anchor="middle" font-family="Arial, sans-serif" font-size="26" font-weight="800" fill="#1E3A5F">Triage</text>
    </g>

    <g transform="translate(522 430)">
      <path d="M36 104c0-64 43-110 98-110s98 46 98 110v108H36z" fill="#1E3A5F"/>
      <circle cx="134" cy="52" r="56" fill="#F2C29B"/>
      <path d="M84 47c9-46 48-68 89-50 24 11 37 32 39 63-28-15-55-19-83-12-19 5-32 5-45-1z" fill="#4B5563"/>
      <circle cx="116" cy="64" r="6" fill="#1F2937"/>
      <circle cx="154" cy="64" r="6" fill="#1F2937"/>
      <path d="M116 96c13-9 32-9 45 0" fill="none" stroke="#1F2937" stroke-width="6" stroke-linecap="round"/>
      <text x="134" y="252" text-anchor="middle" font-family="Arial, sans-serif" font-size="24" font-weight="800" fill="#1E3A5F">Patient</text>
    </g>
  </g>

  <g font-family="Arial, sans-serif" font-weight="800" fill="#3D7A8A">
    <text x="268" y="250" text-anchor="middle" font-size="24">Short version</text>
    <text x="552" y="207" text-anchor="middle" font-size="24">Full story</text>
    <text x="850" y="250" text-anchor="middle" font-size="24">How urgent?</text>
  </g>
</svg>
