<svg xmlns="http://www.w3.org/2000/svg" viewBox="0 0 1200 720" role="img" aria-labelledby="title desc">
  <title id="title">Cartoon patient with high blood pressure reading</title>
  <desc id="desc">A cartoon patient looks worried while a blood pressure monitor shows a high number and an emergency physician calmly points to symptoms that matter.</desc>
  <defs>
    <linearGradient id="bg" x1="0" y1="0" x2="1" y2="1">
      <stop offset="0" stop-color="#F8F3EA"/>
      <stop offset="1" stop-color="#EAF3F5"/>
    </linearGradient>
    <filter id="shadow" x="-20%" y="-20%" width="140%" height="140%">
      <feDropShadow dx="0" dy="14" stdDeviation="16" flood-color="#1E3A5F" flood-opacity="0.18"/>
    </filter>
  </defs>
  <rect width="1200" height="720" fill="url(#bg)"/>
  <circle cx="1020" cy="116" r="92" fill="#C9973A" opacity="0.15"/>
  <circle cx="160" cy="610" r="126" fill="#3D7A8A" opacity="0.12"/>

  <g filter="url(#shadow)">
    <rect x="710" y="96" width="342" height="430" rx="42" fill="#FFFFFF"/>
    <rect x="758" y="150" width="246" height="154" rx="24" fill="#1E3A5F"/>
    <path d="M802 193h158l-24 22 30 16-35 12 23 27h-151l24-27-35-12 30-16z" fill="#FDE68A"/>
    <text x="881" y="238" text-anchor="middle" font-family="Arial, sans-serif" font-size="56" font-weight="900" fill="#B91C1C">185</text>
    <text x="881" y="284" text-anchor="middle" font-family="Arial, sans-serif" font-size="48" font-weight="900" fill="#B91C1C">110</text>
    <rect x="768" y="350" width="226" height="36" rx="18" fill="#E9F2F3"/>
    <rect x="768" y="410" width="226" height="36" rx="18" fill="#E9F2F3"/>
    <rect x="768" y="470" width="156" height="36" rx="18" fill="#E9F2F3"/>
  </g>

  <g filter="url(#shadow)">
    <rect x="110" y="138" width="378" height="438" rx="34" fill="#FFFFFF"/>
    <rect x="152" y="188" width="294" height="58" rx="14" fill="#3D7A8A"/>
    <text x="299" y="225" text-anchor="middle" font-family="Arial, sans-serif" font-size="25" font-weight="800" fill="#FFFFFF">WHAT MATTERS?</text>
    <g font-family="Arial, sans-serif" font-size="24" fill="#1E3A5F" font-weight="700">
      <circle cx="174" cy="296" r="13" fill="#C9973A"/>
      <path d="M166 296l6 7 14-18" fill="none" stroke="#fff" stroke-width="5" stroke-linecap="round" stroke-linejoin="round"/>
      <text x="205" y="305">Chest pain?</text>
      <circle cx="174" cy="362" r="13" fill="#C9973A"/>
      <path d="M166 362l6 7 14-18" fill="none" stroke="#fff" stroke-width="5" stroke-linecap="round" stroke-linejoin="round"/>
      <text x="205" y="371">Trouble breathing?</text>
      <circle cx="174" cy="428" r="13" fill="#C9973A"/>
      <path d="M166 428l6 7 14-18" fill="none" stroke="#fff" stroke-width="5" stroke-linecap="round" stroke-linejoin="round"/>
      <text x="205" y="437">Stroke symptoms?</text>
      <circle cx="174" cy="494" r="13" fill="#C9973A"/>
      <path d="M166 494l6 7 14-18" fill="none" stroke="#fff" stroke-width="5" stroke-linecap="round" stroke-linejoin="round"/>
      <text x="205" y="503">Vision changes?</text>
    </g>
  </g>

  <g filter="url(#shadow)">
    <ellipse cx="582" cy="628" rx="174" ry="30" fill="#1E3A5F" opacity="0.18"/>
    <path d="M492 392c-34 18-56 61-54 111l6 92h224l-2-92c-1-69-51-124-117-124-21 0-40 4-57 13z" fill="#3D7A8A"/>
    <circle cx="552" cy="310" r="94" fill="#F2C29B"/>
    <path d="M467 302c10-80 83-119 153-82 33 17 52 43 59 81-39-21-78-30-118-21-42 9-67 13-94 22z" fill="#6B3F2A"/>
    <circle cx="520" cy="324" r="9" fill="#1F2937"/>
    <circle cx="590" cy="324" r="9" fill="#1F2937"/>
    <path d="M526 373c22-15 53-15 75 0" fill="none" stroke="#1F2937" stroke-width="8" stroke-linecap="round"/>
    <path d="M452 504c-58-2-89-29-102-81" fill="none" stroke="#F2C29B" stroke-width="32" stroke-linecap="round"/>
    <path d="M660 499c46 7 83-7 112-42" fill="none" stroke="#F2C29B" stroke-width="32" stroke-linecap="round"/>
    <path d="M772 457c-20 9-34 25-40 46" fill="none" stroke="#1E3A5F" stroke-width="13" stroke-linecap="round"/>
    <rect x="357" y="194" width="94" height="74" rx="18" fill="#FFFFFF"/>
    <path d="M403 210c16 0 30 13 30 30 0 28-30 46-30 46s-30-18-30-46c0-17 14-30 30-30z" fill="#EF4444"/>
    <path d="M382 306c-18-34-47-41-79-19" fill="none" stroke="#C9973A" stroke-width="12" stroke-linecap="round"/>
    <path d="M417 306c18-34 47-41 79-19" fill="none" stroke="#C9973A" stroke-width="12" stroke-linecap="round"/>
  </g>

  <g>
    <rect x="326" y="52" width="548" height="82" rx="41" fill="#1E3A5F"/>
    <text x="600" y="105" text-anchor="middle" font-family="Arial, sans-serif" font-size="34" font-weight="900" fill="#FFFFFF">Sky-High Blood Pressure?</text>
  </g>
</svg>
