<svg xmlns="http://www.w3.org/2000/svg" viewBox="0 0 1200 720" role="img" aria-labelledby="title desc">
  <title id="title">Patient telling a focused emergency department story</title>
  <desc id="desc">A cartoon emergency physician listens while a patient shares the key parts of their medical story: symptom, timing, changes, history, and medications.</desc>
  <defs>
    <linearGradient id="bg" x1="0" y1="0" x2="1" y2="1">
      <stop offset="0" stop-color="#F8F3EA"/>
      <stop offset="1" stop-color="#E9F2F3"/>
    </linearGradient>
    <filter id="shadow" x="-20%" y="-20%" width="140%" height="140%">
      <feDropShadow dx="0" dy="16" stdDeviation="18" flood-color="#1E3A5F" flood-opacity="0.18"/>
    </filter>
  </defs>
  <rect width="1200" height="720" fill="url(#bg)"/>
  <circle cx="1015" cy="110" r="92" fill="#C9973A" opacity="0.15"/>
  <circle cx="148" cy="618" r="128" fill="#3D7A8A" opacity="0.12"/>

  <g filter="url(#shadow)">
    <rect x="80" y="92" width="400" height="476" rx="38" fill="#FFFFFF"/>
    <rect x="124" y="142" width="312" height="58" rx="14" fill="#1E3A5F"/>
    <text x="280" y="180" text-anchor="middle" font-family="Arial, sans-serif" font-size="25" font-weight="900" fill="#FFFFFF">THE USEFUL VERSION</text>
    <g font-family="Arial, sans-serif" font-size="24" fill="#1E3A5F" font-weight="700">
      <circle cx="150" cy="258" r="13" fill="#3D7A8A"/>
      <path d="M142 258l6 7 14-18" fill="none" stroke="#fff" stroke-width="5" stroke-linecap="round" stroke-linejoin="round"/>
      <text x="182" y="267">Main symptom</text>
      <circle cx="150" cy="324" r="13" fill="#3D7A8A"/>
      <path d="M142 324l6 7 14-18" fill="none" stroke="#fff" stroke-width="5" stroke-linecap="round" stroke-linejoin="round"/>
      <text x="182" y="333">When it started</text>
      <circle cx="150" cy="390" r="13" fill="#3D7A8A"/>
      <path d="M142 390l6 7 14-18" fill="none" stroke="#fff" stroke-width="5" stroke-linecap="round" stroke-linejoin="round"/>
      <text x="182" y="399">What changed</text>
      <circle cx="150" cy="456" r="13" fill="#3D7A8A"/>
      <path d="M142 456l6 7 14-18" fill="none" stroke="#fff" stroke-width="5" stroke-linecap="round" stroke-linejoin="round"/>
      <text x="182" y="465">Relevant history</text>
      <circle cx="150" cy="522" r="13" fill="#3D7A8A"/>
      <path d="M142 522l6 7 14-18" fill="none" stroke="#fff" stroke-width="5" stroke-linecap="round" stroke-linejoin="round"/>
      <text x="182" y="531">Key medications</text>
    </g>
  </g>

  <g filter="url(#shadow)">
    <ellipse cx="770" cy="630" rx="300" ry="36" fill="#1E3A5F" opacity="0.18"/>
    <rect x="598" y="184" width="352" height="262" rx="30" fill="#FFFFFF"/>
    <rect x="638" y="224" width="130" height="86" rx="16" fill="#E9F2F3"/>
    <path d="M665 270h22l16-26 24 44 17-18h36" fill="none" stroke="#3D7A8A" stroke-width="8" stroke-linecap="round" stroke-linejoin="round"/>
    <rect x="804" y="224" width="106" height="158" rx="16" fill="#F8F3EA"/>
    <rect x="826" y="252" width="62" height="10" rx="5" fill="#C9973A"/>
    <rect x="826" y="286" width="62" height="10" rx="5" fill="#D9E4E7"/>
    <rect x="826" y="320" width="48" height="10" rx="5" fill="#D9E4E7"/>

    <path d="M634 414c-42 22-72 69-74 126l-3 70h248l-4-72c-4-74-58-133-128-133-14 0-27 3-39 9z" fill="#FFFFFF"/>
    <path d="M604 462h164l18 148H582z" fill="#3D7A8A" opacity="0.18"/>
    <circle cx="682" cy="334" r="82" fill="#F2C29B"/>
    <path d="M604 329c10-73 78-108 141-70 31 19 47 48 49 84-38-26-76-32-114-22-30 8-51 9-76 8z" fill="#6B3F2A"/>
    <circle cx="654" cy="350" r="8" fill="#1F2937"/>
    <circle cx="716" cy="350" r="8" fill="#1F2937"/>
    <path d="M658 389c19 19 50 19 70 0" fill="none" stroke="#1F2937" stroke-width="8" stroke-linecap="round"/>
    <rect x="580" y="440" width="208" height="44" rx="22" fill="#1E3A5F"/>
    <text x="684" y="470" text-anchor="middle" font-family="Arial, sans-serif" font-size="22" font-weight="900" fill="#FFFFFF">ED Clinician</text>

    <path d="M870 430c-30 24-48 70-43 132l4 48h176l5-48c7-78-34-140-96-140-16 0-31 3-46 8z" fill="#C9973A"/>
    <circle cx="918" cy="350" r="70" fill="#F2C29B"/>
    <path d="M853 345c9-62 61-91 116-65 26 13 42 38 45 73-32-20-65-25-98-16-25 7-43 9-63 8z" fill="#4B5563"/>
    <circle cx="896" cy="365" r="7" fill="#1F2937"/>
    <circle cx="951" cy="365" r="7" fill="#1F2937"/>
    <path d="M901 402c17 14 42 14 60 0" fill="none" stroke="#1F2937" stroke-width="7" stroke-linecap="round"/>
  </g>

  <g filter="url(#shadow)">
    <rect x="516" y="74" width="512" height="80" rx="40" fill="#1E3A5F"/>
    <text x="772" y="126" text-anchor="middle" font-family="Arial, sans-serif" font-size="34" font-weight="900" fill="#FFFFFF">Short. Clear. Helpful.</text>
  </g>
</svg>
